<svg width="12" height="19" viewBox="0 0 12 19" fill="none" xmlns="http://www.w3.org/2000/svg">
<path d="M1.86973e-07 16.8613L1.75677e-08 18.799C2.88445e-09 18.967 0.194118 19.0598 0.32521 18.957L11.6899 10.1305C11.7864 10.0558 11.8646 9.96018 11.9183 9.85092C11.9721 9.74166 12 9.62163 12 9.5C12 9.37837 11.9721 9.25834 11.9183 9.14908C11.8646 9.03982 11.7864 8.94421 11.6899 8.86954L0.325211 0.0430211C0.191599 -0.0597583 1.65815e-06 0.0329942 1.64347e-06 0.20095L1.47406e-06 2.13872C1.46332e-06 2.26156 0.0579839 2.37938 0.153782 2.45458L9.22938 9.49875L0.153781 16.5454C0.0579827 16.6206 1.97712e-07 16.7384 1.86973e-07 16.8613Z" fill="#F2F2F2"/>
</svg>
